# Blender v3.6.0 OBJ File: ''
# www.blender.org
mtllib CeilingFanBlades.mtl
o Blades_Mesh_0.009
v -0.217353 0.044725 -0.104613
v -0.941331 0.044725 0.140245
v -0.941331 0.044725 -0.140244
v -0.217353 0.044725 0.104613
v -0.941331 0.044725 0.140245
v -0.989599 0.044725 -0.102718
v -0.941331 0.044725 -0.140244
v -0.989599 0.044725 0.102719
v -0.941331 0.093480 0.140245
v -0.217353 0.093480 -0.104613
v -0.941331 0.093480 -0.140244
v -0.217353 0.093480 0.104613
v -0.989599 0.093480 -0.102718
v -0.941331 0.093480 0.140245
v -0.941331 0.093480 -0.140244
v -0.989599 0.093480 0.102719
v -0.082149 0.081234 0.064922
v -0.217353 0.056971 0.064922
v -0.082149 0.056971 0.064922
v -0.217353 0.081234 0.064922
v -0.989599 0.093480 0.102719
v -0.989599 0.044725 -0.102718
v -0.989599 0.044725 0.102719
v -0.989599 0.093480 -0.102718
v -0.941331 0.093480 -0.140244
v -0.217353 0.044725 -0.104613
v -0.941331 0.044725 -0.140244
v -0.217353 0.093480 -0.104613
v -0.217353 0.093480 0.104613
v -0.941331 0.044725 0.140245
v -0.217353 0.044725 0.104613
v -0.941331 0.093480 0.140245
v -0.989599 0.093480 -0.102718
v -0.941331 0.044725 -0.140244
v -0.989599 0.044725 -0.102718
v -0.941331 0.093480 -0.140244
v -0.941331 0.093480 0.140245
v -0.989599 0.044725 0.102719
v -0.941331 0.044725 0.140245
v -0.989599 0.093480 0.102719
v -0.217353 0.056971 -0.064922
v -0.217353 0.044725 0.104613
v -0.217353 0.044725 -0.104613
v -0.217353 0.056971 0.064922
v -0.217353 0.093480 -0.104613
v -0.217353 0.081234 0.064922
v -0.217353 0.081234 -0.064922
v -0.217353 0.093480 0.104613
v -0.217353 0.093480 -0.104613
v -0.217353 0.056971 -0.064922
v -0.217353 0.044725 -0.104613
v -0.217353 0.081234 -0.064922
v -0.217353 0.056971 0.064922
v -0.217353 0.093480 0.104613
v -0.217353 0.044725 0.104613
v -0.217353 0.081234 0.064922
v -0.082149 0.081234 -0.064922
v -0.082149 0.056971 0.064922
v -0.082149 0.056971 -0.064922
v -0.082149 0.081234 0.064922
v -0.217353 0.081234 -0.064922
v -0.082149 0.081234 0.064922
v -0.082149 0.081234 -0.064922
v -0.217353 0.081234 0.064922
v -0.217353 0.081234 -0.064922
v -0.082149 0.056971 -0.064922
v -0.217353 0.056971 -0.064922
v -0.082149 0.081234 -0.064922
v -0.082149 0.056971 0.064922
v -0.217353 0.056971 -0.064922
v -0.082149 0.056971 -0.064922
v -0.217353 0.056971 0.064922
v 0.140245 0.044725 0.941332
v -0.104613 0.044725 0.217353
v 0.104613 0.044725 0.217353
v -0.140245 0.044725 0.941332
v 0.102718 0.044725 0.989599
v -0.102718 0.044725 0.989599
v -0.140245 0.093480 0.941332
v 0.104613 0.093480 0.217353
v -0.104613 0.093480 0.217353
v 0.140245 0.093480 0.941332
v -0.102718 0.093480 0.989599
v 0.102718 0.093480 0.989599
v 0.064922 0.081234 0.082149
v 0.064922 0.056971 0.217353
v 0.064922 0.056971 0.082149
v 0.064922 0.081234 0.217353
v 0.102718 0.093480 0.989599
v -0.102718 0.044725 0.989599
v 0.102718 0.044725 0.989599
v -0.102718 0.093480 0.989599
v -0.140245 0.093480 0.941332
v -0.104613 0.044725 0.217353
v -0.140245 0.044725 0.941332
v -0.104613 0.093480 0.217353
v 0.104613 0.093480 0.217353
v 0.140245 0.044725 0.941332
v 0.104613 0.044725 0.217353
v 0.140245 0.093480 0.941332
v -0.102718 0.093480 0.989599
v -0.140245 0.044725 0.941332
v -0.102718 0.044725 0.989599
v -0.140245 0.093480 0.941332
v 0.140245 0.093480 0.941332
v 0.102718 0.044725 0.989599
v 0.140245 0.044725 0.941332
v 0.102718 0.093480 0.989599
v -0.064922 0.056971 0.217353
v 0.104613 0.044725 0.217353
v -0.104613 0.044725 0.217353
v 0.064922 0.056971 0.217353
v -0.104613 0.093480 0.217353
v 0.064922 0.081234 0.217353
v -0.064922 0.081234 0.217353
v 0.104613 0.093480 0.217353
v -0.104613 0.093480 0.217353
v -0.064922 0.056971 0.217353
v -0.104613 0.044725 0.217353
v -0.064922 0.081234 0.217353
v 0.064922 0.056971 0.217353
v 0.104613 0.093480 0.217353
v 0.104613 0.044725 0.217353
v 0.064922 0.081234 0.217353
v -0.064922 0.081234 0.082149
v 0.064922 0.056971 0.082149
v -0.064922 0.056971 0.082149
v 0.064922 0.081234 0.082149
v -0.064922 0.081234 0.217353
v 0.064922 0.081234 0.082149
v -0.064922 0.081234 0.082149
v 0.064922 0.081234 0.217353
v -0.064922 0.081234 0.217353
v -0.064922 0.056971 0.082149
v -0.064922 0.056971 0.217353
v -0.064922 0.081234 0.082149
v 0.064922 0.056971 0.082149
v -0.064922 0.056971 0.217353
v -0.064922 0.056971 0.082149
v 0.064922 0.056971 0.217353
v 0.941331 0.044725 0.140245
v 0.217353 0.044725 -0.104613
v 0.941331 0.044725 -0.140245
v 0.217353 0.044725 0.104613
v 0.989599 0.044725 -0.102718
v 0.941331 0.044725 0.140245
v 0.941331 0.044725 -0.140245
v 0.989599 0.044725 0.102718
v 0.217353 0.093480 -0.104613
v 0.941331 0.093480 0.140245
v 0.941331 0.093480 -0.140245
v 0.217353 0.093480 0.104613
v 0.941331 0.093480 0.140245
v 0.989599 0.093480 -0.102718
v 0.941331 0.093480 -0.140245
v 0.989599 0.093480 0.102718
v 0.082149 0.081234 -0.064922
v 0.217353 0.056971 -0.064922
v 0.082149 0.056971 -0.064922
v 0.217353 0.081234 -0.064922
v 0.989599 0.093480 -0.102718
v 0.989599 0.044725 0.102718
v 0.989599 0.044725 -0.102718
v 0.989599 0.093480 0.102718
v 0.941331 0.093480 0.140245
v 0.217353 0.044725 0.104613
v 0.941331 0.044725 0.140245
v 0.217353 0.093480 0.104613
v 0.217353 0.093480 -0.104613
v 0.941331 0.044725 -0.140245
v 0.217353 0.044725 -0.104613
v 0.941331 0.093480 -0.140245
v 0.989599 0.093480 0.102718
v 0.941331 0.044725 0.140245
v 0.989599 0.044725 0.102718
v 0.941331 0.093480 0.140245
v 0.941331 0.093480 -0.140245
v 0.989599 0.044725 -0.102718
v 0.941331 0.044725 -0.140245
v 0.989599 0.093480 -0.102718
v 0.217353 0.056971 0.064922
v 0.217353 0.044725 -0.104613
v 0.217353 0.044725 0.104613
v 0.217353 0.056971 -0.064922
v 0.217353 0.093480 0.104613
v 0.217353 0.081234 -0.064922
v 0.217353 0.081234 0.064922
v 0.217353 0.093480 -0.104613
v 0.217353 0.093480 0.104613
v 0.217353 0.056971 0.064922
v 0.217353 0.044725 0.104613
v 0.217353 0.081234 0.064922
v 0.217353 0.056971 -0.064922
v 0.217353 0.093480 -0.104613
v 0.217353 0.044725 -0.104613
v 0.217353 0.081234 -0.064922
v 0.082149 0.081234 0.064922
v 0.082149 0.056971 -0.064922
v 0.082149 0.056971 0.064922
v 0.082149 0.081234 -0.064922
v 0.082149 0.081234 -0.064922
v 0.217353 0.081234 0.064922
v 0.217353 0.081234 -0.064922
v 0.082149 0.081234 0.064922
v 0.217353 0.081234 0.064922
v 0.082149 0.056971 0.064922
v 0.217353 0.056971 0.064922
v 0.082149 0.081234 0.064922
v 0.217353 0.056971 0.064922
v 0.082149 0.056971 -0.064922
v 0.217353 0.056971 -0.064922
v 0.082149 0.056971 0.064922
v 0.104613 0.044725 -0.217353
v -0.140245 0.044725 -0.941331
v 0.140244 0.044725 -0.941332
v -0.104613 0.044725 -0.217353
v 0.140244 0.044725 -0.941332
v -0.102719 0.044725 -0.989599
v 0.102717 0.044725 -0.989599
v -0.140245 0.044725 -0.941331
v -0.140245 0.093480 -0.941331
v 0.104613 0.093480 -0.217353
v 0.140244 0.093480 -0.941332
v -0.104613 0.093480 -0.217353
v -0.102719 0.093480 -0.989599
v 0.140244 0.093480 -0.941332
v 0.102717 0.093480 -0.989599
v -0.140245 0.093480 -0.941331
v -0.064922 0.081234 -0.082149
v -0.064922 0.056971 -0.217353
v -0.064922 0.056971 -0.082149
v -0.064922 0.081234 -0.217353
v -0.102719 0.093480 -0.989599
v 0.102717 0.044725 -0.989599
v -0.102719 0.044725 -0.989599
v 0.102717 0.093480 -0.989599
v 0.140244 0.093480 -0.941332
v 0.104613 0.044725 -0.217353
v 0.140244 0.044725 -0.941332
v 0.104613 0.093480 -0.217353
v -0.104613 0.093480 -0.217353
v -0.140245 0.044725 -0.941331
v -0.104613 0.044725 -0.217353
v -0.140245 0.093480 -0.941331
v 0.102717 0.093480 -0.989599
v 0.140244 0.044725 -0.941332
v 0.102717 0.044725 -0.989599
v 0.140244 0.093480 -0.941332
v -0.140245 0.093480 -0.941331
v -0.102719 0.044725 -0.989599
v -0.140245 0.044725 -0.941331
v -0.102719 0.093480 -0.989599
v 0.064922 0.056971 -0.217353
v -0.104613 0.044725 -0.217353
v 0.104613 0.044725 -0.217353
v -0.064922 0.056971 -0.217353
v 0.104613 0.093480 -0.217353
v -0.064922 0.081234 -0.217353
v 0.064922 0.081234 -0.217353
v -0.104613 0.093480 -0.217353
v 0.104613 0.093480 -0.217353
v 0.064922 0.056971 -0.217353
v 0.104613 0.044725 -0.217353
v 0.064922 0.081234 -0.217353
v -0.064922 0.056971 -0.217353
v -0.104613 0.093480 -0.217353
v -0.104613 0.044725 -0.217353
v -0.064922 0.081234 -0.217353
v 0.064922 0.081234 -0.082149
v -0.064922 0.056971 -0.082149
v 0.064922 0.056971 -0.082149
v -0.064922 0.081234 -0.082149
v -0.064922 0.081234 -0.217353
v 0.064922 0.081234 -0.082149
v 0.064922 0.081234 -0.217353
v -0.064922 0.081234 -0.082149
v 0.064922 0.081234 -0.217353
v 0.064922 0.056971 -0.082149
v 0.064922 0.056971 -0.217353
v 0.064922 0.081234 -0.082149
v 0.064922 0.056971 -0.082149
v -0.064922 0.056971 -0.217353
v 0.064922 0.056971 -0.217353
v -0.064922 0.056971 -0.082149
vt 1.000000 0.138184
vt 0.000000 0.138184
vt 0.000000 1.000000
vt 1.000000 1.000000
vt 0.000000 0.000000
vt 0.000000 0.138184
vt 1.000000 0.138184
vt 1.000000 0.000000
vt 0.000000 1.000000
vt 0.000000 0.138184
vt 1.000000 0.138184
vt 1.000000 1.000000
vt 1.000000 0.138184
vt 0.000000 0.138184
vt 0.000000 0.000000
vt 1.000000 0.000000
vt 0.979980 1.000000
vt 0.979980 1.000000
vt 0.979980 1.000000
vt 0.979980 1.000000
vt 0.000000 0.000000
vt 1.000000 0.000000
vt 1.000000 0.000000
vt 0.000000 0.000000
vt 1.000000 1.000000
vt 0.000000 1.000000
vt 0.019531 1.000000
vt 0.979980 1.000000
vt 0.979980 1.000000
vt 0.019531 1.000000
vt 0.000000 1.000000
vt 1.000000 1.000000
vt 0.019531 1.000000
vt 0.000000 1.000000
vt 0.000000 1.000000
vt 0.019531 1.000000
vt 1.000000 1.000000
vt 1.000000 1.000000
vt 0.979980 1.000000
vt 0.979980 1.000000
vt 0.979980 1.000000
vt 0.019531 1.000000
vt 0.019531 1.000000
vt 0.979980 1.000000
vt 0.979980 1.000000
vt 0.019531 1.000000
vt 0.019531 1.000000
vt 0.979980 1.000000
vt 0.019531 1.000000
vt 0.019531 1.000000
vt 0.019531 1.000000
vt 0.019531 1.000000
vt 0.019531 1.000000
vt 0.019531 1.000000
vt 0.979980 1.000000
vt 0.979980 1.000000
vt 0.000000 1.000000
vt 1.000000 1.000000
vt 1.000000 0.138184
vt 0.000000 0.138184
vt 1.000000 0.000000
vt 0.000000 0.000000
vt 1.000000 1.000000
vt 0.000000 1.000000
vt 0.000000 0.138184
vt 1.000000 0.138184
vt 0.000000 0.000000
vt 1.000000 0.000000
vt 0.979980 1.000000
vt 0.979980 1.000000
vt 0.979980 1.000000
vt 0.979980 1.000000
vt 0.000000 0.000000
vt 1.000000 0.000000
vt 1.000000 0.000000
vt 0.000000 0.000000
vt 1.000000 1.000000
vt 0.000000 1.000000
vt 0.019531 1.000000
vt 0.979980 1.000000
vt 0.979980 1.000000
vt 0.019531 1.000000
vt 0.000000 1.000000
vt 1.000000 1.000000
vt 0.019531 1.000000
vt 0.000000 1.000000
vt 0.000000 1.000000
vt 0.019531 1.000000
vt 1.000000 1.000000
vt 1.000000 1.000000
vt 0.979980 1.000000
vt 0.979980 1.000000
vt 0.979980 1.000000
vt 0.019531 1.000000
vt 0.019531 1.000000
vt 0.979980 1.000000
vt 0.979980 1.000000
vt 0.019531 1.000000
vt 0.019531 1.000000
vt 0.979980 1.000000
vt 0.019531 1.000000
vt 0.019531 1.000000
vt 0.019531 1.000000
vt 0.019531 1.000000
vt 0.019531 1.000000
vt 0.019531 1.000000
vt 0.979980 1.000000
vt 0.979980 1.000000
vt 1.000000 1.000000
vt 1.000000 0.138184
vt 0.000000 0.138184
vt 0.000000 1.000000
vt 0.000000 0.138184
vt 1.000000 0.138184
vt 1.000000 0.000000
vt 0.000000 0.000000
vt 0.000000 0.138184
vt 1.000000 0.138184
vt 1.000000 1.000000
vt 0.000000 1.000000
vt 1.000000 0.000000
vt 1.000000 0.138184
vt 0.000000 0.138184
vt 0.000000 0.000000
vt 0.979980 1.000000
vt 0.979980 1.000000
vt 0.979980 1.000000
vt 0.979980 1.000000
vt 0.000000 0.000000
vt 1.000000 0.000000
vt 1.000000 0.000000
vt 0.000000 0.000000
vt 1.000000 1.000000
vt 0.000000 1.000000
vt 0.019531 1.000000
vt 0.979980 1.000000
vt 0.979980 1.000000
vt 0.019531 1.000000
vt 0.000000 1.000000
vt 1.000000 1.000000
vt 0.019531 1.000000
vt 0.000000 1.000000
vt 0.000000 1.000000
vt 0.019531 1.000000
vt 1.000000 1.000000
vt 1.000000 1.000000
vt 0.979980 1.000000
vt 0.979980 1.000000
vt 0.979980 1.000000
vt 0.019531 1.000000
vt 0.019531 1.000000
vt 0.979980 1.000000
vt 0.019531 1.000000
vt 0.979980 1.000000
vt 0.979980 1.000000
vt 0.019531 1.000000
vt 0.019531 1.000000
vt 0.019531 1.000000
vt 0.019531 1.000000
vt 0.019531 1.000000
vt 0.979980 1.000000
vt 0.979980 1.000000
vt 0.019531 1.000000
vt 0.019531 1.000000
vt 1.000000 0.138184
vt 0.000000 0.138184
vt 0.000000 1.000000
vt 1.000000 1.000000
vt 1.000000 0.000000
vt 0.000000 0.000000
vt 0.000000 0.138184
vt 1.000000 0.138184
vt 0.000000 1.000000
vt 0.000000 0.138184
vt 1.000000 0.138184
vt 1.000000 1.000000
vt 0.000000 0.138184
vt 0.000000 0.000000
vt 1.000000 0.000000
vt 1.000000 0.138184
vt 0.979980 1.000000
vt 0.979980 1.000000
vt 0.979980 1.000000
vt 0.979980 1.000000
vt 0.000000 0.000000
vt 1.000000 0.000000
vt 1.000000 0.000000
vt 0.000000 0.000000
vt 1.000000 1.000000
vt 0.000000 1.000000
vt 0.019531 1.000000
vt 0.979980 1.000000
vt 0.979980 1.000000
vt 0.019531 1.000000
vt 0.000000 1.000000
vt 1.000000 1.000000
vt 0.019531 1.000000
vt 0.000000 1.000000
vt 0.000000 1.000000
vt 0.019531 1.000000
vt 1.000000 1.000000
vt 1.000000 1.000000
vt 0.979980 1.000000
vt 0.979980 1.000000
vt 0.979980 1.000000
vt 0.019531 1.000000
vt 0.019531 1.000000
vt 0.979980 1.000000
vt 0.019531 1.000000
vt 0.019531 1.000000
vt 0.979980 1.000000
vt 0.979980 1.000000
vt 0.019531 1.000000
vt 0.019531 1.000000
vt 0.019531 1.000000
vt 0.019531 1.000000
vt 0.979980 1.000000
vt 0.019531 1.000000
vt 0.019531 1.000000
vt 0.979980 1.000000
vt 0.000000 1.000000
vt 0.000000 0.138184
vt 0.000000 0.138184
vt 0.000000 1.000000
vt 1.000000 0.138184
vt 1.000000 1.000000
vt 1.000000 1.000000
vt 1.000000 0.138184
vt 0.000000 0.138184
vt 0.000000 0.000000
vt 0.000000 0.000000
vt 0.000000 0.138184
vt 1.000000 0.000000
vt 1.000000 0.138184
vt 1.000000 0.138184
vt 1.000000 0.000000
vt 0.000000 1.000000
vt 0.000000 0.138184
vt 0.000000 0.138184
vt 0.000000 1.000000
vt 1.000000 0.138184
vt 1.000000 1.000000
vt 1.000000 1.000000
vt 1.000000 0.138184
vt 0.000000 0.138184
vt 0.000000 0.000000
vt 0.000000 0.000000
vt 0.000000 0.138184
vt 1.000000 0.000000
vt 1.000000 0.138184
vt 1.000000 0.138184
vt 1.000000 0.000000
vt 0.000000 1.000000
vt 0.000000 0.138184
vt 0.000000 0.138184
vt 0.000000 1.000000
vt 1.000000 0.138184
vt 1.000000 1.000000
vt 1.000000 1.000000
vt 1.000000 0.138184
vt 0.000000 0.138184
vt 0.000000 0.000000
vt 0.000000 0.000000
vt 0.000000 0.138184
vt 1.000000 0.000000
vt 1.000000 0.138184
vt 1.000000 0.138184
vt 1.000000 0.000000
vt 0.000000 1.000000
vt 0.000000 0.138184
vt 0.000000 0.138184
vt 0.000000 1.000000
vt 1.000000 0.138184
vt 1.000000 1.000000
vt 1.000000 1.000000
vt 1.000000 0.138184
vt 0.000000 0.138184
vt 0.000000 0.000000
vt 0.000000 0.000000
vt 0.000000 0.138184
vt 1.000000 0.000000
vt 1.000000 0.138184
vt 1.000000 0.138184
vt 1.000000 0.000000
vn 0.0000 -1.0000 0.0000
vn 0.0000 1.0000 0.0000
vn 0.0000 0.0000 1.0000
vn -1.0000 0.0000 0.0000
vn 1.0000 -0.0000 0.0000
vn 0.0000 0.0000 -1.0000
vn 0.0475 0.0000 -0.9989
vn 0.0475 0.0000 0.9989
vn 0.0474 -0.0000 0.9989
vn -0.6101 0.0000 -0.7924
vn -0.6101 -0.0000 -0.7923
vn -0.6101 0.0000 0.7924
vn -0.6101 0.0000 0.7923
vn -0.9989 0.0000 -0.0475
vn 0.9989 0.0000 -0.0475
vn -0.7923 0.0000 0.6101
vn 0.7923 0.0000 0.6101
vn -0.0474 0.0000 0.9989
vn -0.0475 0.0000 0.9989
vn -0.0475 0.0000 -0.9989
vn -0.0474 -0.0000 -0.9989
vn 0.6101 0.0000 0.7923
vn 0.6101 0.0000 -0.7923
vn 0.9989 0.0000 0.0474
vn 0.9989 0.0000 0.0475
vn -0.9989 0.0000 0.0475
vn 0.7923 0.0000 -0.6101
vn -0.7923 0.0000 -0.6101
usemtl FanMetal001
s off
f 2/1/1 3/2/1 1/3/1
f 2/1/1 1/3/1 4/4/1
f 6/5/1 7/6/1 5/7/1
f 8/8/1 6/5/1 5/7/1
f 10/9/2 11/10/2 9/11/2
f 12/12/2 10/9/2 9/11/2
f 14/13/2 15/14/2 13/15/2
f 14/13/2 13/15/2 16/16/2
f 18/17/3 19/18/3 17/19/3
f 20/20/3 18/17/3 17/19/3
f 22/21/4 23/22/4 21/23/4
f 24/24/4 22/21/4 21/23/4
f 42/25/5 43/26/5 41/27/5
f 44/28/5 42/25/5 41/27/5
f 46/29/5 47/30/5 45/31/5
f 48/32/5 46/29/5 45/31/5
f 50/33/5 51/34/5 49/35/5
f 52/36/5 50/33/5 49/35/5
f 54/37/5 55/38/5 53/39/5
f 54/37/5 53/39/5 56/40/5
f 58/41/5 59/42/5 57/43/5
f 60/44/5 58/41/5 57/43/5
f 62/45/2 63/46/2 61/47/2
f 62/45/2 61/47/2 64/48/2
f 66/49/6 67/50/6 65/51/6
f 68/52/6 66/49/6 65/51/6
f 70/53/1 71/54/1 69/55/1
f 72/56/1 70/53/1 69/55/1
f 74/57/1 75/58/1 73/59/1
f 76/60/1 74/57/1 73/59/1
f 76/60/1 73/59/1 77/61/1
f 78/62/1 76/60/1 77/61/1
f 80/63/2 81/64/2 79/65/2
f 82/66/2 80/63/2 79/65/2
f 82/66/2 79/65/2 83/67/2
f 84/68/2 82/66/2 83/67/2
f 86/69/5 87/70/5 85/71/5
f 88/72/5 86/69/5 85/71/5
f 90/73/3 91/74/3 89/75/3
f 92/76/3 90/73/3 89/75/3
f 110/77/6 111/78/6 109/79/6
f 112/80/6 110/77/6 109/79/6
f 114/81/6 115/82/6 113/83/6
f 116/84/6 114/81/6 113/83/6
f 118/85/6 119/86/6 117/87/6
f 120/88/6 118/85/6 117/87/6
f 122/89/6 123/90/6 121/91/6
f 122/89/6 121/91/6 124/92/6
f 126/93/6 127/94/6 125/95/6
f 128/96/6 126/93/6 125/95/6
f 130/97/2 131/98/2 129/99/2
f 132/100/2 130/97/2 129/99/2
f 134/101/4 135/102/4 133/103/4
f 136/104/4 134/101/4 133/103/4
f 138/105/1 139/106/1 137/107/1
f 138/105/1 137/107/1 140/108/1
f 142/109/1 143/110/1 141/111/1
f 144/112/1 142/109/1 141/111/1
f 146/113/1 147/114/1 145/115/1
f 146/113/1 145/115/1 148/116/1
f 150/117/2 151/118/2 149/119/2
f 150/117/2 149/119/2 152/120/2
f 154/121/2 155/122/2 153/123/2
f 156/124/2 154/121/2 153/123/2
f 158/125/6 159/126/6 157/127/6
f 160/128/6 158/125/6 157/127/6
f 162/129/5 163/130/5 161/131/5
f 164/132/5 162/129/5 161/131/5
f 182/133/4 183/134/4 181/135/4
f 184/136/4 182/133/4 181/135/4
f 186/137/4 187/138/4 185/139/4
f 188/140/4 186/137/4 185/139/4
f 190/141/4 191/142/4 189/143/4
f 192/144/4 190/141/4 189/143/4
f 194/145/4 195/146/4 193/147/4
f 194/145/4 193/147/4 196/148/4
f 198/149/4 199/150/4 197/151/4
f 200/152/4 198/149/4 197/151/4
f 202/153/2 203/154/2 201/155/2
f 202/153/2 201/155/2 204/156/2
f 206/157/3 207/158/3 205/159/3
f 208/160/3 206/157/3 205/159/3
f 210/161/1 211/162/1 209/163/1
f 212/164/1 210/161/1 209/163/1
f 214/165/1 215/166/1 213/167/1
f 216/168/1 214/165/1 213/167/1
f 218/169/1 219/170/1 217/171/1
f 220/172/1 218/169/1 217/171/1
f 222/173/2 223/174/2 221/175/2
f 222/173/2 221/175/2 224/176/2
f 226/177/2 227/178/2 225/179/2
f 226/177/2 225/179/2 228/180/2
f 230/181/4 231/182/4 229/183/4
f 232/184/4 230/181/4 229/183/4
f 234/185/6 235/186/6 233/187/6
f 236/188/6 234/185/6 233/187/6
f 254/189/3 255/190/3 253/191/3
f 256/192/3 254/189/3 253/191/3
f 258/193/3 259/194/3 257/195/3
f 260/196/3 258/193/3 257/195/3
f 262/197/3 263/198/3 261/199/3
f 264/200/3 262/197/3 261/199/3
f 266/201/3 267/202/3 265/203/3
f 266/201/3 265/203/3 268/204/3
f 270/205/3 271/206/3 269/207/3
f 272/208/3 270/205/3 269/207/3
f 274/209/2 275/210/2 273/211/2
f 274/209/2 273/211/2 276/212/2
f 278/213/5 279/214/5 277/215/5
f 280/216/5 278/213/5 277/215/5
f 282/217/1 283/218/1 281/219/1
f 284/220/1 282/217/1 281/219/1
s 1
f 26/221/7 27/222/7 25/223/7
f 28/224/7 26/221/7 25/223/7
f 30/225/8 31/226/9 29/227/9
f 32/228/8 30/225/8 29/227/9
f 34/229/10 35/230/11 33/231/10
f 36/232/11 34/229/10 33/231/10
f 38/233/12 39/234/13 37/235/12
f 40/236/13 38/233/12 37/235/12
f 94/237/14 95/238/14 93/239/14
f 96/240/14 94/237/14 93/239/14
f 98/241/15 99/242/15 97/243/15
f 100/244/15 98/241/15 97/243/15
f 102/245/16 103/246/16 101/247/16
f 104/248/16 102/245/16 101/247/16
f 106/249/17 107/250/17 105/251/17
f 108/252/17 106/249/17 105/251/17
f 166/253/18 167/254/19 165/255/19
f 168/256/18 166/253/18 165/255/19
f 170/257/20 171/258/21 169/259/21
f 172/260/20 170/257/20 169/259/21
f 174/261/22 175/262/22 173/263/22
f 176/264/22 174/261/22 173/263/22
f 178/265/23 179/266/23 177/267/23
f 180/268/23 178/265/23 177/267/23
f 238/269/24 239/270/25 237/271/24
f 240/272/25 238/269/24 237/271/24
f 242/273/26 243/274/26 241/275/26
f 244/276/26 242/273/26 241/275/26
f 246/277/27 247/278/27 245/279/27
f 248/280/27 246/277/27 245/279/27
f 250/281/28 251/282/28 249/283/28
f 252/284/28 250/281/28 249/283/28
