# Blender v3.6.0 OBJ File: ''
# www.blender.org
mtllib Plate.mtl
o MeshInstance.001_Mesh_0.007
v -0.522895 0.131583 -0.719703
v 0.000000 0.131583 -0.889602
v -0.496704 0.125654 -0.683656
v 0.000000 0.125654 -0.845044
v 0.000000 0.105540 0.913362
v 0.000000 0.131583 0.889602
v 0.536861 0.105540 0.738926
v 0.522895 0.131583 0.719703
v 0.000000 0.131583 0.889602
v -0.522895 0.131583 0.719703
v 0.000000 0.125654 0.845044
v -0.496705 0.125654 0.683655
v -0.522895 0.131583 0.719703
v -0.846062 0.131583 0.274902
v -0.496705 0.125654 0.683655
v -0.803685 0.125654 0.261133
v -0.846062 0.131583 0.274902
v -0.846062 0.131583 -0.274902
v -0.803685 0.125654 0.261133
v -0.803685 0.125654 -0.261133
v -0.846062 0.131583 -0.274902
v -0.522895 0.131583 -0.719703
v -0.803685 0.125654 -0.261133
v -0.496704 0.125654 -0.683656
v 0.000000 0.105540 -0.772534
v 0.454084 0.105540 -0.624993
v 0.000000 0.036164 -0.579536
v 0.340643 0.036164 -0.468854
v 0.846062 0.131583 0.274902
v 0.522895 0.131583 0.719703
v 0.803685 0.125654 0.261133
v 0.496705 0.125654 0.683655
v 0.846062 0.131583 -0.274902
v 0.846062 0.131583 0.274902
v 0.803685 0.125654 -0.261133
v 0.803685 0.125654 0.261133
v 0.536861 0.105540 -0.738926
v 0.440060 0.053955 -0.605690
v 0.868659 0.105540 -0.282244
v 0.712032 0.053955 -0.231353
v 0.734723 0.105540 0.238726
v 0.454084 0.105540 0.624993
v 0.551171 0.036164 0.179086
v 0.340643 0.036164 0.468854
v 0.522895 0.131583 -0.719703
v 0.846062 0.131583 -0.274902
v 0.496705 0.125654 -0.683655
v 0.803685 0.125654 -0.261133
v -0.868659 0.105540 -0.282245
v -0.712032 0.053955 -0.231353
v -0.536861 0.105540 -0.738926
v -0.440060 0.053955 -0.605691
v -0.868659 0.105540 0.282245
v -0.712032 0.053955 0.231353
v -0.868659 0.105540 -0.282245
v -0.712032 0.053955 -0.231353
v -0.536861 0.105540 0.738925
v -0.440060 0.053955 0.605690
v -0.868659 0.105540 0.282245
v -0.712032 0.053955 0.231353
v 0.000000 0.105540 0.913362
v 0.000000 0.053955 0.748675
v -0.536861 0.105540 0.738925
v -0.440060 0.053955 0.605690
v 0.868659 0.105540 0.282244
v 0.712032 0.053955 0.231353
v 0.536861 0.105540 0.738926
v 0.440060 0.053955 0.605690
v -0.536861 0.105540 -0.738926
v -0.440060 0.053955 -0.605691
v 0.000000 0.105540 -0.913362
v 0.000000 0.053955 -0.748675
v 0.868659 0.105540 -0.282244
v 0.712032 0.053955 -0.231353
v 0.868659 0.105540 0.282244
v 0.712032 0.053955 0.231353
v 0.000000 0.036164 -0.579536
v 0.340643 0.036164 -0.468854
v -0.340642 0.036164 -0.468854
v -0.551171 0.036164 -0.179086
v -0.551171 0.036164 0.179086
v -0.340643 0.036164 0.468854
v 0.000000 0.036164 0.579536
v 0.340643 0.036164 0.468854
v 0.551171 0.036164 0.179086
v 0.551171 0.036164 -0.179086
v 0.734723 0.105540 -0.238726
v 0.734723 0.105540 0.238726
v 0.551171 0.036164 -0.179086
v 0.551171 0.036164 0.179086
v -0.734723 0.105540 0.238726
v -0.734723 0.105540 -0.238726
v -0.551171 0.036164 0.179086
v -0.551171 0.036164 -0.179086
v 0.496705 0.125654 0.683655
v 0.000000 0.125654 0.845044
v 0.454084 0.105540 0.624993
v 0.000000 0.105540 0.772534
v 0.454084 0.105540 -0.624993
v 0.734723 0.105540 -0.238726
v 0.340643 0.036164 -0.468854
v 0.551171 0.036164 -0.179086
v -0.734723 0.105540 -0.238726
v -0.454084 0.105540 -0.624993
v -0.551171 0.036164 -0.179086
v -0.340642 0.036164 -0.468854
v 0.000000 0.105540 0.772534
v -0.454084 0.105540 0.624993
v 0.000000 0.036164 0.579536
v -0.340643 0.036164 0.468854
v -0.454084 0.105540 -0.624993
v 0.000000 0.105540 -0.772534
v -0.340642 0.036164 -0.468854
v 0.000000 0.036164 -0.579536
v -0.454084 0.105540 0.624993
v -0.734723 0.105540 0.238726
v -0.340643 0.036164 0.468854
v -0.551171 0.036164 0.179086
v 0.000000 0.105540 -0.913362
v 0.000000 0.053955 -0.748675
v 0.536861 0.105540 -0.738926
v 0.440060 0.053955 -0.605690
v 0.440060 0.053955 -0.605690
v 0.000000 0.053955 -0.748675
v 0.307687 0.020769 -0.423494
v 0.000000 0.020769 -0.523468
v 0.307687 0.020769 -0.423494
v 0.000000 0.020769 -0.523468
v 0.179971 0.004217 -0.247709
v 0.000000 0.004217 -0.306185
v 0.712032 0.053955 -0.231353
v 0.440060 0.053955 -0.605690
v 0.497847 0.020769 -0.161760
v 0.307687 0.020769 -0.423494
v 0.497847 0.020769 -0.161760
v 0.307687 0.020769 -0.423494
v 0.291199 0.004217 -0.094616
v 0.179971 0.004217 -0.247709
v 0.712032 0.053955 0.231353
v 0.712032 0.053955 -0.231353
v 0.497847 0.020769 0.161760
v 0.497847 0.020769 -0.161760
v 0.497847 0.020769 0.161760
v 0.497847 0.020769 -0.161760
v 0.291199 0.004217 0.094616
v 0.291199 0.004217 -0.094616
v 0.440060 0.053955 0.605690
v 0.712032 0.053955 0.231353
v 0.307687 0.020769 0.423494
v 0.497847 0.020769 0.161760
v 0.307687 0.020769 0.423494
v 0.497847 0.020769 0.161760
v 0.179971 0.004217 0.247709
v 0.291199 0.004217 0.094616
v 0.536861 0.105540 0.738926
v 0.440060 0.053955 0.605690
v 0.000000 0.105540 0.913362
v 0.000000 0.053955 0.748675
v 0.000000 0.053955 0.748675
v 0.440060 0.053955 0.605690
v 0.000000 0.020769 0.523468
v 0.307687 0.020769 0.423494
v -0.440060 0.053955 0.605690
v 0.000000 0.053955 0.748675
v -0.307687 0.020769 0.423494
v 0.000000 0.020769 0.523468
v -0.307687 0.020769 0.423494
v 0.000000 0.020769 0.523468
v -0.179971 0.004217 0.247709
v 0.000000 0.004217 0.306185
v -0.712032 0.053955 0.231353
v -0.440060 0.053955 0.605690
v -0.497847 0.020769 0.161760
v -0.307687 0.020769 0.423494
v -0.497847 0.020769 0.161760
v -0.307687 0.020769 0.423494
v -0.291199 0.004217 0.094616
v -0.179971 0.004217 0.247709
v -0.712032 0.053955 -0.231353
v -0.712032 0.053955 0.231353
v -0.497847 0.020769 -0.161760
v -0.497847 0.020769 0.161760
v -0.497847 0.020769 -0.161760
v -0.497847 0.020769 0.161760
v -0.291199 0.004217 -0.094616
v -0.291199 0.004217 0.094616
v -0.440060 0.053955 -0.605691
v -0.712032 0.053955 -0.231353
v -0.307686 0.020769 -0.423494
v -0.497847 0.020769 -0.161760
v -0.307686 0.020769 -0.423494
v -0.497847 0.020769 -0.161760
v -0.179971 0.004217 -0.247709
v -0.291199 0.004217 -0.094616
v 0.000000 0.053955 -0.748675
v -0.440060 0.053955 -0.605691
v 0.000000 0.020769 -0.523468
v -0.307686 0.020769 -0.423494
v 0.000000 0.020769 -0.523468
v -0.307686 0.020769 -0.423494
v 0.000000 0.004217 -0.306185
v -0.179971 0.004217 -0.247709
v 0.179971 0.004217 -0.247709
v 0.000000 0.004217 -0.306185
v 0.291199 0.004217 -0.094616
v 0.291199 0.004217 0.094616
v 0.179971 0.004217 0.247709
v 0.000000 0.004217 0.306185
v -0.179971 0.004217 0.247709
v -0.291199 0.004217 0.094616
v -0.291199 0.004217 -0.094616
v -0.179971 0.004217 -0.247709
v 0.000000 0.105540 -0.913362
v 0.536861 0.105540 -0.738926
v 0.000000 0.131583 -0.889602
v 0.522895 0.131583 -0.719703
v 0.536861 0.105540 -0.738926
v 0.868659 0.105540 -0.282244
v 0.522895 0.131583 -0.719703
v 0.846062 0.131583 -0.274902
v 0.868659 0.105540 -0.282244
v 0.868659 0.105540 0.282244
v 0.846062 0.131583 -0.274902
v 0.846062 0.131583 0.274902
v 0.868659 0.105540 0.282244
v 0.536861 0.105540 0.738926
v 0.846062 0.131583 0.274902
v 0.522895 0.131583 0.719703
v 0.000000 0.105540 0.913362
v -0.536861 0.105540 0.738925
v 0.000000 0.131583 0.889602
v -0.522895 0.131583 0.719703
v -0.536861 0.105540 0.738925
v -0.868659 0.105540 0.282245
v -0.522895 0.131583 0.719703
v -0.846062 0.131583 0.274902
v -0.868659 0.105540 0.282245
v -0.868659 0.105540 -0.282245
v -0.846062 0.131583 0.274902
v -0.846062 0.131583 -0.274902
v -0.868659 0.105540 -0.282245
v -0.536861 0.105540 -0.738926
v -0.846062 0.131583 -0.274902
v -0.522895 0.131583 -0.719703
v -0.536861 0.105540 -0.738926
v 0.000000 0.105540 -0.913362
v -0.522895 0.131583 -0.719703
v 0.000000 0.131583 -0.889602
v 0.000000 0.125654 -0.845044
v 0.496705 0.125654 -0.683655
v 0.000000 0.105540 -0.772534
v 0.454084 0.105540 -0.624993
v 0.496705 0.125654 -0.683655
v 0.803685 0.125654 -0.261133
v 0.454084 0.105540 -0.624993
v 0.734723 0.105540 -0.238726
v 0.803685 0.125654 -0.261133
v 0.803685 0.125654 0.261133
v 0.734723 0.105540 -0.238726
v 0.734723 0.105540 0.238726
v 0.803685 0.125654 0.261133
v 0.496705 0.125654 0.683655
v 0.734723 0.105540 0.238726
v 0.454084 0.105540 0.624993
v 0.522895 0.131583 0.719703
v 0.000000 0.131583 0.889602
v 0.496705 0.125654 0.683655
v 0.000000 0.125654 0.845044
v 0.000000 0.125654 0.845044
v -0.496705 0.125654 0.683655
v 0.000000 0.105540 0.772534
v -0.454084 0.105540 0.624993
v -0.496705 0.125654 0.683655
v -0.803685 0.125654 0.261133
v -0.454084 0.105540 0.624993
v -0.734723 0.105540 0.238726
v -0.803685 0.125654 0.261133
v -0.803685 0.125654 -0.261133
v -0.734723 0.105540 0.238726
v -0.734723 0.105540 -0.238726
v -0.803685 0.125654 -0.261133
v -0.496704 0.125654 -0.683656
v -0.734723 0.105540 -0.238726
v -0.454084 0.105540 -0.624993
v -0.496704 0.125654 -0.683656
v 0.000000 0.125654 -0.845044
v -0.454084 0.105540 -0.624993
v 0.000000 0.105540 -0.772534
v 0.000000 0.131583 -0.889602
v 0.522895 0.131583 -0.719703
v 0.000000 0.125654 -0.845044
v 0.496705 0.125654 -0.683655
v 0.000000 0.020769 0.523468
v 0.307687 0.020769 0.423494
v 0.000000 0.004217 0.306185
v 0.179971 0.004217 0.247709
v 0.000000 0.036164 0.579536
v 0.340643 0.036164 0.468854
v 0.000000 0.105540 0.772534
v 0.454084 0.105540 0.624993
vn 0.0000 1.0000 0.0000
vn 0.0798 -0.9968 0.0000
vn -0.0798 -0.9968 0.0000
vn 0.0000 -1.0000 -0.0000
vn 0.0385 0.9910 0.1284
vn 0.0386 0.9910 0.1283
vn 0.2355 0.6543 0.7186
vn 0.2354 0.6542 0.7187
vn 0.2355 0.6544 0.7186
vn 0.0386 0.9910 -0.1283
vn 0.0386 0.9910 -0.1284
vn 0.1074 0.9909 -0.0810
vn 0.1074 0.9909 -0.0811
vn 0.1372 0.9905 0.0000
vn 0.1074 0.9909 0.0811
vn 0.1074 0.9909 0.0810
vn -0.1052 0.9371 0.3328
vn -0.1050 0.9371 0.3330
vn -0.1051 0.9371 0.3329
vn -0.1049 0.9370 0.3331
vn -0.1074 0.9909 -0.0811
vn -0.1074 0.9909 -0.0810
vn -0.1372 0.9905 -0.0000
vn 0.2497 -0.9507 -0.1840
vn 0.2497 -0.9507 -0.1839
vn -0.2809 0.9366 -0.2096
vn -0.2808 0.9366 -0.2094
vn -0.2809 0.9366 -0.2095
vn -0.1074 0.9909 0.0810
vn -0.1074 0.9909 0.0811
vn -0.2497 -0.9507 -0.1839
vn -0.2497 -0.9507 -0.1840
vn -0.3077 -0.9515 0.0002
vn -0.3077 -0.9515 -0.0001
vn -0.3077 -0.9515 -0.0002
vn -0.3077 -0.9515 0.0001
vn -0.2497 -0.9507 0.1840
vn -0.2497 -0.9507 0.1839
vn -0.0924 -0.9509 0.2953
vn -0.0925 -0.9510 0.2952
vn -0.0926 -0.9510 0.2951
vn -0.0925 -0.9509 0.2953
vn 0.2497 -0.9507 0.1839
vn 0.2497 -0.9507 0.1840
vn -0.0926 -0.9510 -0.2951
vn -0.0925 -0.9509 -0.2953
vn -0.0924 -0.9509 -0.2953
vn -0.0925 -0.9510 -0.2952
vn 0.3076 -0.9515 -0.0002
vn 0.3076 -0.9515 0.0001
vn 0.3076 -0.9515 0.0002
vn 0.3076 -0.9515 -0.0001
vn -0.3516 0.9362 -0.0001
vn -0.3516 0.9361 0.0000
vn -0.3516 0.9362 -0.0000
vn -0.3516 0.9361 0.0001
vn 0.3516 0.9362 0.0001
vn 0.3516 0.9361 -0.0000
vn 0.3516 0.9362 0.0000
vn 0.3516 0.9361 -0.0001
vn -0.0815 0.9612 -0.2635
vn -0.0816 0.9613 -0.2633
vn -0.0815 0.9612 -0.2634
vn -0.2808 0.9366 0.2094
vn -0.2809 0.9366 0.2095
vn -0.2809 0.9366 0.2096
vn 0.2809 0.9366 0.2096
vn 0.2808 0.9366 0.2094
vn 0.2809 0.9366 0.2095
vn 0.1052 0.9371 -0.3328
vn 0.1050 0.9371 -0.3330
vn 0.1051 0.9371 -0.3329
vn 0.1049 0.9370 -0.3331
vn 0.1049 0.9370 0.3331
vn 0.1051 0.9371 0.3329
vn 0.1050 0.9371 0.3330
vn 0.1052 0.9371 0.3328
vn 0.2808 0.9366 -0.2094
vn 0.2809 0.9366 -0.2095
vn 0.2809 0.9366 -0.2096
vn 0.0924 -0.9509 -0.2953
vn 0.0925 -0.9510 -0.2952
vn 0.0926 -0.9510 -0.2951
vn 0.0925 -0.9509 -0.2953
vn 0.0428 -0.9891 -0.1408
vn 0.0428 -0.9891 -0.1407
vn 0.0231 -0.9969 -0.0756
vn 0.0232 -0.9969 -0.0756
vn 0.1212 -0.9886 -0.0898
vn 0.1212 -0.9886 -0.0897
vn 0.0631 -0.9972 -0.0409
vn 0.1493 -0.9888 -0.0000
vn 0.1494 -0.9888 -0.0000
vn 0.1212 -0.9886 0.0897
vn 0.1212 -0.9886 0.0898
vn 0.0631 -0.9972 0.0409
vn 0.0926 -0.9510 0.2951
vn 0.0925 -0.9509 0.2953
vn 0.0924 -0.9509 0.2953
vn 0.0925 -0.9510 0.2952
vn 0.0428 -0.9891 0.1407
vn 0.0428 -0.9891 0.1408
vn -0.0428 -0.9891 0.1408
vn -0.0428 -0.9891 0.1407
vn -0.0231 -0.9969 0.0756
vn -0.0232 -0.9969 0.0756
vn -0.1212 -0.9886 0.0898
vn -0.1212 -0.9886 0.0897
vn -0.0631 -0.9972 0.0409
vn -0.1493 -0.9888 0.0000
vn -0.1494 -0.9888 0.0000
vn -0.1212 -0.9886 -0.0897
vn -0.1212 -0.9886 -0.0898
vn -0.0631 -0.9972 -0.0409
vn -0.0428 -0.9891 -0.1408
vn -0.0428 -0.9891 -0.1407
vn -0.0232 -0.9969 -0.0756
vn -0.0231 -0.9969 -0.0756
vn 0.2354 0.6542 -0.7187
vn 0.2355 0.6543 -0.7186
vn 0.2355 0.6544 -0.7186
vn 0.6134 0.6535 -0.4435
vn 0.6135 0.6536 -0.4433
vn 0.6135 0.6535 -0.4434
vn 0.6135 0.6536 -0.4432
vn 0.7569 0.6535 -0.0002
vn 0.7569 0.6535 0.0001
vn 0.7569 0.6535 -0.0001
vn 0.7569 0.6535 0.0002
vn 0.6135 0.6536 0.4432
vn 0.6135 0.6535 0.4434
vn 0.6135 0.6536 0.4433
vn 0.6135 0.6534 0.4435
vn -0.2354 0.6542 0.7187
vn -0.2354 0.6543 0.7186
vn -0.2355 0.6544 0.7186
vn -0.6134 0.6535 0.4435
vn -0.6135 0.6536 0.4433
vn -0.6134 0.6535 0.4434
vn -0.6135 0.6536 0.4432
vn -0.7569 0.6535 0.0002
vn -0.7569 0.6536 -0.0001
vn -0.7569 0.6535 0.0001
vn -0.7569 0.6535 -0.0002
vn -0.6135 0.6537 -0.4432
vn -0.6135 0.6535 -0.4434
vn -0.6135 0.6536 -0.4432
vn -0.6135 0.6534 -0.4435
vn -0.2355 0.6544 -0.7186
vn -0.2354 0.6542 -0.7187
vn -0.2354 0.6544 -0.7186
vn -0.0816 0.9613 0.2633
vn -0.0815 0.9612 0.2634
vn -0.0815 0.9612 0.2635
vn -0.2237 0.9611 0.1620
vn -0.2236 0.9611 0.1621
vn -0.2236 0.9611 0.1620
vn -0.2762 0.9611 -0.0001
vn -0.2763 0.9611 0.0000
vn -0.2763 0.9611 0.0001
vn -0.2236 0.9611 -0.1621
vn -0.2236 0.9611 -0.1620
vn -0.2237 0.9611 -0.1620
vn -0.0386 0.9910 -0.1284
vn -0.0386 0.9910 -0.1283
vn 0.0816 0.9613 -0.2633
vn 0.0815 0.9612 -0.2634
vn 0.0815 0.9612 -0.2635
vn 0.2237 0.9611 -0.1620
vn 0.2236 0.9611 -0.1621
vn 0.2236 0.9611 -0.1620
vn 0.2762 0.9611 0.0001
vn 0.2763 0.9611 -0.0000
vn 0.2763 0.9611 -0.0001
vn 0.2236 0.9611 0.1621
vn 0.2236 0.9611 0.1620
vn 0.2237 0.9611 0.1619
vn 0.0815 0.9612 0.2635
vn 0.0816 0.9613 0.2633
vn 0.0816 0.9612 0.2634
vn -0.0386 0.9910 0.1283
vn -0.0386 0.9910 0.1284
vn 0.0231 -0.9969 0.0756
vn 0.0232 -0.9969 0.0756
vn -0.1051 0.9371 -0.3329
vn -0.1049 0.9370 -0.3331
vn -0.1052 0.9371 -0.3328
vn -0.1050 0.9371 -0.3330
usemtl Rubber.001
s off
f 79//1 78//1 77//1
f 80//1 78//1 79//1
f 81//1 78//1 80//1
f 82//1 78//1 81//1
f 83//1 78//1 82//1
f 84//1 78//1 83//1
f 85//1 78//1 84//1
f 86//1 78//1 85//1
f 145//2 144//2 143//2
f 146//2 144//2 145//2
f 185//3 184//3 183//3
f 186//3 184//3 185//3
f 205//4 204//4 203//4
f 206//4 204//4 205//4
f 207//4 204//4 206//4
f 208//4 204//4 207//4
f 209//4 204//4 208//4
f 210//4 204//4 209//4
f 211//4 204//4 210//4
f 212//4 204//4 211//4
s 1
f 3//5 2//6 1//6
f 4//6 2//6 3//5
f 7//7 6//8 5//8
f 8//9 6//8 7//7
f 11//10 10//11 9//10
f 12//11 10//11 11//10
f 15//12 14//13 13//12
f 16//13 14//13 15//12
f 19//14 18//14 17//14
f 20//14 18//14 19//14
f 23//15 22//16 21//15
f 24//16 22//16 23//15
f 27//17 26//18 25//19
f 28//20 26//18 27//17
f 31//21 30//22 29//21
f 32//22 30//22 31//21
f 35//23 34//23 33//23
f 36//23 34//23 35//23
f 39//24 38//25 37//25
f 40//24 38//25 39//24
f 43//26 42//27 41//28
f 44//27 42//27 43//26
f 47//29 46//30 45//29
f 48//30 46//30 47//29
f 51//31 50//32 49//32
f 52//31 50//32 51//31
f 55//33 54//34 53//35
f 56//36 54//34 55//33
f 59//37 58//38 57//38
f 60//37 58//38 59//37
f 63//39 62//40 61//41
f 64//42 62//40 63//39
f 67//43 66//44 65//44
f 68//43 66//44 67//43
f 71//45 70//46 69//47
f 72//48 70//46 71//45
f 75//49 74//50 73//51
f 76//52 74//50 75//49
f 89//53 88//54 87//55
f 90//56 88//54 89//53
f 93//57 92//58 91//59
f 94//60 92//58 93//57
f 97//61 96//62 95//63
f 98//62 96//62 97//61
f 101//64 100//65 99//64
f 102//66 100//65 101//64
f 105//67 104//68 103//69
f 106//68 104//68 105//67
f 109//70 108//71 107//72
f 110//73 108//71 109//70
f 113//74 112//75 111//76
f 114//77 112//75 113//74
f 117//78 116//79 115//78
f 118//80 116//79 117//78
f 121//81 120//82 119//83
f 122//84 120//82 121//81
f 125//85 124//86 123//85
f 126//86 124//86 125//85
f 129//87 128//87 127//88
f 130//88 128//87 129//87
f 133//89 132//90 131//89
f 134//90 132//90 133//89
f 137//91 136//91 135//91
f 138//91 136//91 137//91
f 141//92 140//92 139//93
f 142//92 140//92 141//92
f 149//94 148//95 147//94
f 150//95 148//95 149//94
f 153//96 152//96 151//96
f 154//96 152//96 153//96
f 157//97 156//98 155//99
f 158//100 156//98 157//97
f 161//101 160//102 159//101
f 162//102 160//102 161//101
f 165//103 164//104 163//103
f 166//104 164//104 165//103
f 169//105 168//105 167//106
f 170//106 168//105 169//105
f 173//107 172//108 171//107
f 174//108 172//108 173//107
f 177//109 176//109 175//109
f 178//109 176//109 177//109
f 181//110 180//110 179//111
f 182//110 180//110 181//110
f 189//112 188//113 187//112
f 190//113 188//113 189//112
f 193//114 192//114 191//114
f 194//114 192//114 193//114
f 197//115 196//115 195//116
f 198//115 196//115 197//115
f 201//117 200//118 199//117
f 202//118 200//118 201//117
f 215//119 214//120 213//119
f 216//121 214//120 215//119
f 219//122 218//123 217//124
f 220//125 218//123 219//122
f 223//126 222//127 221//128
f 224//129 222//127 223//126
f 227//130 226//131 225//132
f 228//133 226//131 227//130
f 231//134 230//135 229//134
f 232//136 230//135 231//134
f 235//137 234//138 233//139
f 236//140 234//138 235//137
f 239//141 238//142 237//143
f 240//144 238//142 239//141
f 243//145 242//146 241//147
f 244//148 242//146 243//145
f 247//149 246//150 245//151
f 248//150 246//150 247//149
f 251//152 250//153 249//152
f 252//154 250//153 251//152
f 255//155 254//156 253//157
f 256//156 254//156 255//155
f 259//158 258//159 257//159
f 260//160 258//159 259//158
f 263//161 262//162 261//162
f 264//163 262//162 263//161
f 267//164 266//165 265//164
f 268//165 266//165 267//164
f 271//166 270//167 269//166
f 272//168 270//167 271//166
f 275//169 274//170 273//171
f 276//170 274//170 275//169
f 279//172 278//173 277//173
f 280//174 278//173 279//172
f 283//175 282//176 281//175
f 284//177 282//176 283//175
f 287//178 286//179 285//180
f 288//179 286//179 287//178
f 291//181 290//182 289//181
f 292//182 290//182 291//181
f 295//183 294//183 293//184
f 296//184 294//183 295//183
f 299//185 298//186 297//187
f 300//188 298//186 299//185
