<?xml version="1.0" encoding="UTF-8" standalone="no"?>
<!-- Created with Inkscape (http://www.inkscape.org/) -->

<svg
   xmlns:dc="http://purl.org/dc/elements/1.1/"
   xmlns:cc="http://creativecommons.org/ns#"
   xmlns:rdf="http://www.w3.org/1999/02/22-rdf-syntax-ns#"
   xmlns:svg="http://www.w3.org/2000/svg"
   xmlns="http://www.w3.org/2000/svg"
   xmlns:sodipodi="http://sodipodi.sourceforge.net/DTD/sodipodi-0.dtd"
   xmlns:inkscape="http://www.inkscape.org/namespaces/inkscape"
   width="57.627972mm"
   height="69.48201mm"
   viewBox="0 0 57.627972 69.48201"
   version="1.1"
   id="svg3896"
   inkscape:version="0.92.4 5da689c313, 2019-01-14"
   sodipodi:docname="logo_goat.svg">
  <defs
     id="defs3890" />
  <sodipodi:namedview
     id="base"
     pagecolor="#ffffff"
     bordercolor="#666666"
     borderopacity="1.0"
     inkscape:pageopacity="0.0"
     inkscape:pageshadow="2"
     inkscape:zoom="2.8"
     inkscape:cx="81.347345"
     inkscape:cy="128.3951"
     inkscape:document-units="mm"
     inkscape:current-layer="layer1"
     showgrid="false"
     inkscape:pagecheckerboard="true"
     fit-margin-top="0"
     fit-margin-left="0"
     fit-margin-right="0"
     fit-margin-bottom="0"
     inkscape:window-width="1920"
     inkscape:window-height="1025"
     inkscape:window-x="0"
     inkscape:window-y="27"
     inkscape:window-maximized="1" />
  <metadata
     id="metadata3893">
    <rdf:RDF>
      <cc:Work
         rdf:about="">
        <dc:format>image/svg+xml</dc:format>
        <dc:type
           rdf:resource="http://purl.org/dc/dcmitype/StillImage" />
        <dc:title></dc:title>
      </cc:Work>
    </rdf:RDF>
  </metadata>
  <g
     inkscape:label="Layer 1"
     inkscape:groupmode="layer"
     id="layer1"
     transform="translate(-97.337229,-159.09295)">
    <path
       style="fill:#757575;stroke-width:0.26458338"
       d="m 124.99553,228.41369 c -3.09099,-0.55521 -7.09734,-2.19363 -9.72159,-3.97574 -13.07259,-8.87743 -16.419049,-27.45646 -7.3606,-40.86493 l 1.36489,-2.02033 -0.46673,-0.97953 c -1.98908,-4.17451 -5.73187,-8.31627 -9.097529,-10.06728 -2.362572,-1.22915 -2.537864,-1.39385 -2.295657,-2.15698 0.424701,-1.33811 6.832096,-1.91713 10.451056,-0.94442 3.40177,0.91433 6.44843,2.58842 9.71029,5.33566 l 1.6405,1.38168 2.06367,-0.65626 c 1.13502,-0.36095 3.0007,-0.79323 4.14596,-0.96062 1.57074,-0.22959 2.17395,-0.43624 2.45535,-0.84117 0.20517,-0.29524 0.94319,-1.42977 1.64003,-2.52118 3.20004,-5.01196 7.62967,-8.3537 12.75694,-9.62392 1.78229,-0.44154 3.58619,-0.55395 4.32708,-0.26965 0.7959,0.30541 0.41157,1.21689 -1.30712,3.10001 -1.14912,1.25906 -2.11784,2.68761 -2.89962,4.276 -1.09104,2.21674 -2.25391,5.72963 -2.25391,6.80877 0,0.31788 0.69186,0.81307 2.18281,1.56231 2.59665,1.3049 5.58753,3.49937 7.1037,5.21212 1.48323,1.67554 1.70083,2.19864 1.25732,3.02256 -0.6997,1.29987 -8.43787,9.45973 -8.97086,9.45973 -0.5387,0 -0.79661,-0.25484 -2.6311,-2.59963 -1.31943,-1.68646 -3.73265,-3.31286 -5.5693,-3.75346 -6.65553,-1.59664 -12.3947,2.30983 -14.29197,9.72807 -0.6195,2.42225 -0.66914,6.11117 -0.11391,8.46606 0.89526,3.7971 3.69032,7.64499 6.63835,9.13887 2.83663,1.43743 6.33351,1.44068 9.25818,0.009 2.30808,-1.13014 4.34303,-3.51387 4.34303,-5.08736 0,-0.54213 -0.10623,-0.55533 -4.46861,-0.55533 -3.86637,0 -4.54398,-0.0624 -5.02787,-0.46302 -0.42558,-0.35234 -0.81166,-1.53818 -1.61519,-4.96094 -1.1198,-4.76998 -1.25232,-5.91872 -0.74167,-6.42937 0.23837,-0.23836 3.56894,-0.3175 13.36146,-0.3175 12.69118,0 13.05828,0.0143 13.57313,0.52916 0.48906,0.48907 0.52916,0.88195 0.52916,5.18416 0,3.54874 -0.2514,7.08562 -1.05788,14.88282 -0.58183,5.6253 -1.1746,10.49571 -1.31724,10.82313 -0.18016,0.41351 -0.48331,0.59418 -0.99263,0.59159 -0.83968,-0.004 -4.36793,-1.84004 -5.3828,-2.80071 l -0.68077,-0.64441 -2.54161,1.33802 c -3.90949,2.05815 -6.69752,2.69427 -12.23644,2.7919 -2.47386,0.0436 -5.06599,-0.0228 -5.7603,-0.14748 z m 10.38399,-3.35216 c 4.17841,-0.7376 7.67614,-2.47026 10.58985,-5.2459 0.65484,-0.6238 2.19433,-2.71468 3.32269,-5.0464 1.13102,-2.33719 2.50562,-8.69119 2.43815,-12.02455 l -0.0723,-3.57188 -10.3849,-0.0692 c -11.91119,-0.0794 -10.69283,-0.41683 -9.98248,2.76478 0.73034,3.27116 0.21334,2.99298 5.56245,2.99298 2.6657,0 4.86927,0.1156 5.15897,0.27065 0.91209,0.48813 1.08164,1.16359 0.77458,3.08573 -1.34193,8.40016 -12.24642,12.51758 -19.79733,7.47528 -4.40278,-2.94007 -7.09045,-8.09596 -7.3775,-14.15265 -0.1809,-3.81684 0.34829,-6.5663 1.88172,-9.77656 2.78725,-5.83517 7.17286,-8.86287 12.83782,-8.86287 4.02571,0 7.01968,1.15634 9.94563,3.84123 0.87095,0.79919 1.66783,1.42272 1.77083,1.38561 0.39212,-0.14125 4.98,-5.36441 4.98,-5.66957 0,-0.44909 -2.62287,-2.67802 -4.49755,-3.82205 -3.15225,-1.92366 -8.24986,-3.14521 -13.12105,-3.14424 -5.32307,0.001 -8.67398,1.06135 -13.49855,4.27117 -4.81704,3.20481 -8.53355,9.54376 -9.63833,16.43929 -0.50854,3.17407 -0.20556,8.48873 0.64875,11.37998 1.34234,4.54292 3.36361,8.07156 6.32688,11.04519 5.94754,5.96835 13.05864,8.03564 22.13167,6.434 z"
       id="path23"
       inkscape:connector-curvature="0"
       sodipodi:nodetypes="ccccsccsscccccscscscssscccsscsscssscscccccccccccsscccscccsssccsccsssccc" />
  </g>
</svg>
